<svg width="18" height="27" viewBox="0 0 18 27" fill="none" xmlns="http://www.w3.org/2000/svg">
<g id="logo 2" clip-path="url(#clip0)">
<g id="Loco Icon">
<g id="Group">
<path id="Path" d="M14.8234 23.261C12.8144 25.1279 10.1607 26.1447 7.41852 26.0981C4.67639 26.0515 2.05874 24.9453 0.114288 23.0112L15.0823 8.96054C16.0293 9.90283 16.7761 11.0269 17.2778 12.2651C17.7794 13.5033 18.0255 14.8302 18.0013 16.166C17.9772 17.5017 17.6832 18.8188 17.137 20.0381C16.5909 21.2574 15.8039 22.3536 14.8234 23.261V23.261Z" fill="white"/>
<path id="Path_2" d="M17.8857 3.08764L2.91979 17.1393C1.97258 16.1972 1.22564 15.0733 0.723827 13.8351C0.222019 12.5969 -0.024288 11.2701 -0.000293288 9.93433C0.0237014 8.59856 0.317503 7.28144 0.863455 6.0621C1.40941 4.84276 2.19624 3.74638 3.17667 2.83885C5.18554 0.971809 7.83917 -0.0451055 10.5813 0.00127543C13.3234 0.0476563 15.9412 1.15373 17.8857 3.08764V3.08764Z" fill="white"/>
</g>
</g>
</g>
<defs>
<clipPath id="clip0">
<rect width="18" height="26.0999" fill="white"/>
</clipPath>
</defs>
</svg>
