<svg width="18" height="26" viewBox="0 0 18 26" fill="none" xmlns="http://www.w3.org/2000/svg">
<g id="logo 2" clip-path="url(#clip0)">
<g id="Loco Icon">
<g id="Group">
<path id="Path" d="M14.657 23C12.6705 24.8459 10.0466 25.8513 7.33527 25.8052C4.62391 25.7592 2.03564 24.6653 0.113007 22.753L14.913 8.85999C15.8495 9.7917 16.5879 10.9031 17.0839 12.1275C17.5799 13.3518 17.8232 14.6638 17.7993 15.9846C17.7754 17.3053 17.4847 18.6076 16.9447 19.8132C16.4047 21.0188 15.6266 22.1028 14.657 23Z" fill="#FC569A"/>
<path id="Path_2" d="M17.685 3.05299L2.887 16.947C1.95043 16.0154 1.21186 14.9041 0.715683 13.6798C0.219507 12.4556 -0.0240367 11.1436 -0.00031123 9.82284C0.0234142 8.50207 0.313919 7.19972 0.853744 5.99406C1.39357 4.78841 2.17157 3.70434 3.141 2.80699C5.12733 0.9609 7.75118 -0.044602 10.4625 0.00125838C13.1739 0.0471188 15.7622 1.14078 17.685 3.05299Z" fill="#FC569A"/>
</g>
</g>
</g>
<defs>
<clipPath id="clip0">
<rect width="17.798" height="25.807" fill="white"/>
</clipPath>
</defs>
</svg>
